<?xml version="1.0" encoding="utf-8"?>
<!-- Generator: Adobe Illustrator 22.1.0, SVG Export Plug-In . SVG Version: 6.00 Build 0)  -->
<svg version="1.1" id="Слой_1" xmlns="http://www.w3.org/2000/svg" xmlns:xlink="http://www.w3.org/1999/xlink" x="0px" y="0px"
	 viewBox="0 0 512 512" style="enable-background:new 0 0 512 512;" xml:space="preserve">
<style type="text/css">
	.st0{fill:#c14992;}
</style>
<path class="st0" d="M435.6,44.2C423.6,33.5,371.9,1,264.1,0.5c0,0-127.9-8.5-190.2,48.1C39.6,82.5,28,133.3,26.7,195.2
	c-1.3,61.9-8,180,105.1,211.6l-0.4,95.3c0,5.3,0.9,8.9,4,9.8c2.2,0.4,5.8-0.9,8.5-3.6c18.3-18.3,76.2-88.2,76.2-88.2
	c77.5,4.9,139.4-10.2,146.1-12.5c15.6-4.9,100.7-12.5,114.9-128.3C495.8,160,475.3,78.5,435.6,44.2z M389.3,326.6
	c-5.3,9.8-12.9,18.7-22.3,27.2c-10.2,8.9-22.3,13.8-35.2,9.8l-0.4-0.4c-23.2-6.7-78.4-34.7-113.6-62.8
	C159,254.9,118,179.6,106.4,139.5l-0.4-0.4c-4-12.9,0.9-24.9,9.8-35.2c8.5-9.4,17.4-16.5,27.2-22.3c10.2-5.3,20-3.6,26.7,4.5
	c8.9,8.9,24.9,30.7,36.5,51.2c6.7,12,2.7,24.5-4,29.8l-13.4,10.7c-6.7,5.3-5.8,15.6-5.8,15.6s20,74.4,94.4,93.1
	c0,0,10.2,0.9,15.6-5.8l10.7-13.4c5.3-6.7,17.4-10.7,29.8-4c16,8.9,37,23.2,51.2,36.5C392.9,306.6,394.7,316.4,389.3,326.6z
	 M264.6,113.7c-4-0.4-7.1-3.6-6.7-7.6c0.4-4,3.6-7.1,7.6-6.7c30.7,2.2,55.2,12.9,72.6,32.1c17.4,19.2,25.8,42.8,25.4,71.3
	c-0.4,3.6-3.6,6.7-7.6,6.7c-4,0-7.1-3.6-7.1-7.6c0.4-24.5-6.7-44.5-21.4-61C312.2,124.4,291.8,115.4,264.6,113.7z M326.5,189.4
	c0,4-3.1,7.6-7.6,7.6c-4,0-7.1-3.1-7.1-6.7c-1.3-24.5-12.9-36.5-36.1-37.9c-4,0-7.1-3.6-6.7-7.6c0-4,3.6-7.1,7.6-6.7
	C307.8,139.9,324.7,157.8,326.5,189.4z M393.8,224.6c-4,0-7.1-3.1-7.1-7.1c-0.4-43.7-13.4-78-38.8-102.9
	c-25.4-24.9-57.5-37.4-95.8-37.9c-4,0-7.1-3.1-7.1-7.1c0-4,3.1-7.1,7.1-7.1c41.9,0.4,77.5,14.3,105.6,41.9
	c28.1,27.6,42.8,65.5,43.2,113.2C400.9,221,397.8,224.1,393.8,224.6z"/>
</svg>
