<?xml version="1.0" encoding="utf-8"?>
<!-- Generator: Adobe Illustrator 22.1.0, SVG Export Plug-In . SVG Version: 6.00 Build 0)  -->
<svg version="1.1" id="Capa_1" xmlns="http://www.w3.org/2000/svg" xmlns:xlink="http://www.w3.org/1999/xlink" x="0px" y="0px"
	 viewBox="0 0 512 512" style="enable-background:new 0 0 512 512;" xml:space="preserve">
<style type="text/css">
	.st0{fill:#FFFFFF;}
</style>
<path class="st0" d="M325.8,71H186.3C122.1,71,70,123.1,70,187.3v139.5C70,390.9,122.1,443,186.3,443h139.5
	c64.2,0,116.3-52.1,116.3-116.3V187.3C442,123.1,389.9,71,325.8,71z M407.1,326.8c0,44.9-36.5,81.4-81.4,81.4H186.3
	c-44.9,0-81.4-36.5-81.4-81.4V187.3c0-44.9,36.5-81.4,81.4-81.4h139.5c44.9,0,81.4,36.5,81.4,81.4L407.1,326.8L407.1,326.8z"/>
<path class="st0" d="M256,164c-51.4,0-93,41.6-93,93s41.6,93,93,93s93-41.6,93-93S307.4,164,256,164z M256,315.1
	c-32,0-58.1-26.1-58.1-58.1c0-32.1,26.1-58.1,58.1-58.1s58.1,26.1,58.1,58.1S288,315.1,256,315.1z"/>
<circle class="st0" cx="356" cy="157" r="12.4"/>
</svg>
